<svg width="24" height="25" viewBox="0 0 24 25" fill="none" xmlns="http://www.w3.org/2000/svg">
<path d="M12.0002 0.833923C15.17 0.833923 15.5655 0.84559 16.8092 0.903923C18.0517 0.962257 18.8975 1.15709 19.6418 1.44642C20.4118 1.74276 21.0605 2.14409 21.7092 2.79159C22.3024 3.3748 22.7614 4.08028 23.0543 4.85892C23.3425 5.60209 23.5385 6.44909 23.5968 7.69159C23.6517 8.93526 23.6668 9.33076 23.6668 12.5006C23.6668 15.6704 23.6552 16.0659 23.5968 17.3096C23.5385 18.5521 23.3425 19.3979 23.0543 20.1423C22.7623 20.9213 22.3031 21.627 21.7092 22.2096C21.1258 22.8026 20.4204 23.2616 19.6418 23.5548C18.8987 23.8429 18.0517 24.0389 16.8092 24.0973C15.5655 24.1521 15.17 24.1673 12.0002 24.1673C8.83033 24.1673 8.43483 24.1556 7.19116 24.0973C5.94866 24.0389 5.10283 23.8429 4.3585 23.5548C3.57954 23.2625 2.87394 22.8034 2.29116 22.2096C1.6978 21.6265 1.23875 20.921 0.945996 20.1423C0.656663 19.3991 0.461829 18.5521 0.403496 17.3096C0.348663 16.0659 0.333496 15.6704 0.333496 12.5006C0.333496 9.33076 0.345163 8.93526 0.403496 7.69159C0.461829 6.44792 0.656663 5.60326 0.945996 4.85892C1.23794 4.0798 1.6971 3.37413 2.29116 2.79159C2.87411 2.19803 3.57966 1.73894 4.3585 1.44642C5.10283 1.15709 5.9475 0.962257 7.19116 0.903923C8.43483 0.84909 8.83033 0.833923 12.0002 0.833923ZM12.0002 6.66726C10.4531 6.66726 8.96934 7.28184 7.87537 8.3758C6.78141 9.46976 6.16683 10.9535 6.16683 12.5006C6.16683 14.0477 6.78141 15.5314 7.87537 16.6254C8.96934 17.7193 10.4531 18.3339 12.0002 18.3339C13.5473 18.3339 15.031 17.7193 16.125 16.6254C17.2189 15.5314 17.8335 14.0477 17.8335 12.5006C17.8335 10.9535 17.2189 9.46976 16.125 8.3758C15.031 7.28184 13.5473 6.66726 12.0002 6.66726ZM19.5835 6.37559C19.5835 5.98882 19.4299 5.61788 19.1564 5.34439C18.8829 5.0709 18.5119 4.91726 18.1252 4.91726C17.7384 4.91726 17.3675 5.0709 17.094 5.34439C16.8205 5.61788 16.6668 5.98882 16.6668 6.37559C16.6668 6.76236 16.8205 7.1333 17.094 7.40679C17.3675 7.68028 17.7384 7.83392 18.1252 7.83392C18.5119 7.83392 18.8829 7.68028 19.1564 7.40679C19.4299 7.1333 19.5835 6.76236 19.5835 6.37559ZM12.0002 9.00059C12.9284 9.00059 13.8187 9.36934 14.475 10.0257C15.1314 10.6821 15.5002 11.5723 15.5002 12.5006C15.5002 13.4288 15.1314 14.3191 14.475 14.9755C13.8187 15.6318 12.9284 16.0006 12.0002 16.0006C11.0719 16.0006 10.1817 15.6318 9.52529 14.9755C8.86891 14.3191 8.50016 13.4288 8.50016 12.5006C8.50016 11.5723 8.86891 10.6821 9.52529 10.0257C10.1817 9.36934 11.0719 9.00059 12.0002 9.00059Z" fill="#888888"/>
</svg>
